<svg viewBox="0 0 540 446" xmlns="http://www.w3.org/2000/svg">
  <g transform="translate(0, 446) scale(0.1, -0.1)">
    <g id="letter-m">
      <path fill="#10140f" d="M1810 3315 c-83 -16 -129 -36 -157 -66 -22 -24 -72 -134 -133 -289
-18 -47 -46 -113 -61 -146 -16 -34 -29 -67 -29 -73 0 -6 -4 -19 -9 -29 -44
-85 -45 -90 -31 -107 13 -16 15 -15 32 5 10 12 18 29 18 36 0 8 4 22 9 32 17
31 71 152 71 159 0 3 12 31 26 61 14 30 35 75 45 100 11 25 22 43 24 40 3 -2
16 -106 30 -229 44 -386 90 -657 135 -784 41 -118 172 -448 183 -463 8 -11 13
-10 25 2 13 13 9 32 -36 163 -61 177 -105 322 -127 418 -30 126 -48 259 -32
234 1 -2 20 -57 41 -122 38 -116 105 -249 148 -294 20 -21 23 -22 37 -8 13 12
13 19 4 33 -108 153 -209 494 -244 819 -15 148 -8 357 14 399 18 35 51 60 93
70 42 10 57 24 43 40 -14 17 -33 16 -119 -1z"/>
      <path fill="#10140f" d="M711 3227 c-8 -11 -6 -18 9 -32 16 -14 20 -31 20 -75 0 -61 16 -90
38 -68 6 6 14 10 16 7 2 -2 26 -53 54 -114 42 -94 113 -248 261 -567 17 -38
44 -97 60 -132 48 -104 60 -100 116 34 31 74 35 92 25 105 -10 12 -16 13 -27
4 -8 -7 -17 -9 -23 -3 -5 5 -92 189 -194 409 -102 220 -190 407 -194 415 -17
29 -140 42 -161 17z"/>
      <path fill="#10140f" d="M1320 2475 c-9 -11 -11 -22 -4 -32 13 -21 25 -21 38 -1 8 14 7 21 -5
33 -14 15 -17 15 -29 0z"/>
      <path fill="#10140f" d="M671 2426 c-7 -8 -11 -23 -10 -33 1 -10 -1 -25 -4 -33 -3 -8 -11 -45
-17 -82 -7 -40 -24 -86 -40 -112 -35 -55 -26 -66 50 -66 69 0 85 13 62 48 -12
19 -16 48 -16 124 1 54 4 101 8 105 11 11 7 40 -8 52 -10 9 -16 8 -25 -3z"/>
    </g>
    <g id="letter-w">
      <path fill="#8a7247" d="M3985 3645 c-147 -23 -204 -47 -172 -73 10 -8 40 -6 113 9 141 30
326 23 438 -15 105 -36 152 -65 218 -134 64 -67 98 -123 129 -212 67 -196 -8
-548 -202 -942 -33 -65 -59 -121 -59 -123 0 -4 -83 -158 -130 -240 -12 -22
-42 -74 -65 -115 -23 -41 -60 -106 -82 -145 -50 -89 -131 -241 -248 -470 -51
-99 -114 -216 -140 -260 -35 -59 -45 -83 -38 -95 6 -8 14 -15 19 -14 14 1 105
156 249 424 162 300 228 421 315 570 242 417 370 704 441 985 33 130 34 349 2
450 -96 305 -404 461 -788 400z"/>
      <path fill="#8a7247" d="M2855 3003 c-9 -21 -30 -80 -47 -130 -25 -76 -28 -96 -18 -108 17
-20 36 -4 46 38 l6 31 14 -26 c7 -14 61 -165 118 -334 223 -655 201 -599 229
-602 33 -4 48 20 77 125 19 66 21 85 11 97 -7 8 -18 13 -25 10 -13 -5 -52 100
-235 641 l-98 290 -31 3 c-28 3 -33 -1 -47 -35z"/>
      <path fill="#8a7247" d="M2053 3019 c-9 -9 -4 -21 21 -50 28 -33 61 -121 206 -552 95 -282
181 -521 192 -532 30 -32 48 -9 86 104 27 82 32 105 22 116 -10 12 -16 12 -26
4 -11 -9 -16 -5 -25 17 -35 93 -269 807 -269 822 0 10 6 27 14 38 26 35 3 44
-108 44 -64 0 -106 -4 -113 -11z"/>
      <path fill="#8a7247" d="M3492 3017 c-7 -8 -6 -18 4 -31 17 -23 18 -76 3 -129 -8 -29 -7 -42
2 -53 17 -20 36 -1 50 50 15 54 42 107 68 130 16 15 18 22 10 33 -15 17 -123
18 -137 0z"/>
      <path fill="#8a7247" d="M3483 2778 c-14 -17 -73 -202 -73 -228 0 -10 -4 -22 -10 -25 -14 -9
-12 -41 3 -54 17 -13 37 4 37 31 0 10 4 26 9 36 5 9 24 64 41 121 27 89 30
106 17 118 -11 11 -16 12 -24 1z"/>
      <path fill="#8a7247" d="M2750 2695 c-9 -11 -11 -22 -4 -32 13 -21 25 -21 38 -1 8 14 7 21 -5
33 -14 15 -17 15 -29 0z"/>
      <path fill="#8a7247" d="M2730 2635 c-9 -11 -11 -22 -4 -32 13 -21 25 -21 38 -1 8 14 7 21 -5
33 -14 15 -17 15 -29 0z"/>
      <path fill="#8a7247" d="M2703 2548 c-6 -7 -23 -50 -38 -96 -22 -68 -25 -85 -14 -98 19 -23
32 -3 64 94 24 73 25 86 13 98 -12 12 -17 13 -25 2z"/>
      <path fill="#8a7247" d="M3350 2365 c-9 -11 -11 -22 -4 -32 13 -21 25 -21 38 -1 8 14 7 21 -5
33 -14 15 -17 15 -29 0z"/>
      <path fill="#8a7247" d="M2630 2335 c-9 -11 -11 -22 -4 -32 13 -21 25 -21 38 -1 8 14 7 21 -5
33 -14 15 -17 15 -29 0z"/>
      <path fill="#8a7247" d="M3310 2235 c-9 -11 -11 -22 -4 -32 13 -21 25 -21 38 -1 8 14 7 21 -5
33 -14 15 -17 15 -29 0z"/>
      <path fill="#8a7247" d="M3290 2175 c-9 -11 -11 -22 -4 -32 13 -21 25 -21 38 -1 8 14 7 21 -5
33 -14 15 -17 15 -29 0z"/>
    </g>
    <g id="arc-dark">
      <path fill="#10140f" d="M1929 3317 c6 -8 8 -16 6 -19 -3 -3 50 -7 117 -10 101 -4 134 -9 186
-30 34 -14 62 -24 62 -21 0 11 -135 65 -196 78 -92 19 -191 20 -175 2z"/>
      <path fill="#10140f" d="M659 3234 c18 -8 40 -13 49 -9 21 8 14 11 -38 18 l-45 6 34 -15z"/>
      <path fill="#10140f" d="M735 2988 c-4 -40 -20 -176 -36 -301 -31 -243 -33 -264 -22 -254 3 4
12 2 20 -4 10 -9 13 -8 13 2 0 21 58 528 66 579 4 25 3 42 -1 38 -5 -4 -14 -3
-21 2 -9 8 -13 -6 -19 -62z"/>
      <path fill="#10140f" d="M1348 2545 c-15 -36 -23 -63 -18 -60 5 3 11 1 15 -5 11 -17 23 -11
33 18 6 15 17 44 27 65 9 22 12 36 6 33 -5 -4 -12 -2 -16 4 -12 19 -20 10 -47
-55z"/>
      <path fill="#10140f" d="M1292 2414 c-7 -14 -8 -23 -3 -19 5 3 12 1 16 -5 10 -17 21 -12 33
16 7 14 8 23 3 19 -5 -3 -12 -1 -16 5 -10 17 -21 12 -33 -16z"/>
      <path fill="#10140f" d="M540 2110 c-11 -7 -7 -10 18 -10 20 0 31 4 27 10 -8 13 -26 13 -45 0z"/>
      <path fill="#10140f" d="M715 2110 c-4 -6 9 -10 32 -9 30 0 34 2 18 9 -27 12 -43 12 -50 0z"/>
      <path fill="#10140f" d="M2019 1954 c-28 -34 119 -135 195 -134 14 0 6 7 -22 20 -24 11 -69
44 -101 75 -53 50 -60 54 -72 39z"/>
      <path fill="#10140f" d="M1985 1560 c-4 -6 -11 -8 -16 -5 -5 3 1 -16 12 -42 11 -26 45 -109
76 -183 170 -415 222 -513 287 -544 45 -21 60 -20 88 7 13 12 17 17 8 10 -8
-6 -27 -14 -42 -18 -38 -10 -97 47 -146 143 -35 67 -149 360 -223 575 -24 66
-32 77 -44 57z"/>
    </g>
    <g id="arc-gold">
      <path fill="#8a7247" d="M3739 3577 c-135 -56 -259 -135 -364 -232 -60 -55 -48 -50 54 23 104
74 222 132 380 187 10 4 10 9 2 19 -6 7 -8 16 -4 19 12 13 -12 7 -68 -16z"/>
      <path fill="#8a7247" d="M2293 3235 c0 -8 4 -12 9 -9 5 3 6 10 3 15 -9 13 -12 11 -12 -6z"/>
      <path fill="#8a7247" d="M1991 3026 c2 -2 14 -8 25 -14 17 -9 25 -8 34 3 11 13 7 15 -25 15
-21 0 -36 -2 -34 -4z"/>
      <path fill="#8a7247" d="M2277 3019 c8 -8 19 -8 40 -1 28 10 28 10 -11 11 -29 1 -37 -2 -29
-10z"/>
      <path fill="#8a7247" d="M3424 3021 c10 -15 55 -19 67 -5 9 11 4 14 -30 14 -23 0 -40 -4 -37
-9z"/>
      <path fill="#8a7247" d="M3630 3015 c9 -11 17 -12 31 -4 27 14 24 19 -12 19 -27 0 -30 -2 -19
-15z"/>
      <path fill="#8a7247" d="M3487 2803 c-10 -10 -8 -25 2 -18 5 3 12 1 16 -5 8 -12 25 -4 25 12
0 6 -3 8 -7 5 -3 -4 -11 -2 -18 3 -7 5 -15 7 -18 3z"/>
      <path fill="#8a7247" d="M2763 2735 c-6 -19 -7 -33 -3 -30 5 3 11 1 15 -5 11 -18 21 -10 32
25 6 19 7 33 3 30 -5 -3 -11 -1 -15 5 -11 18 -21 10 -32 -25z"/>
      <path fill="#8a7247" d="M2734 2649 c-4 -7 -3 -9 4 -5 6 3 13 2 17 -4 8 -14 25 -13 25 2 0 6
-3 8 -7 5 -3 -4 -12 -2 -19 4 -8 7 -14 6 -20 -2z"/>
      <path fill="#8a7247" d="M2714 2584 c-4 -11 -9 -23 -12 -29 -3 -5 -2 -7 3 -3 4 4 14 3 22 -4
7 -6 15 -9 17 -7 8 9 18 54 11 47 -5 -4 -14 -3 -21 3 -11 9 -15 7 -20 -7z"/>
      <path fill="#8a7247" d="M3371 2439 c-7 -23 -15 -48 -18 -58 -4 -9 -3 -13 2 -9 4 4 14 3 21
-3 10 -8 15 -8 19 2 25 71 33 99 25 94 -5 -3 -11 -1 -15 5 -12 19 -22 10 -34
-31z"/>
      <path fill="#8a7247" d="M2634 2349 c-4 -7 -3 -9 4 -5 6 3 13 2 17 -4 8 -14 25 -13 25 2 0 6
-3 8 -7 5 -3 -4 -12 -2 -19 4 -8 7 -14 6 -20 -2z"/>
      <path fill="#8a7247" d="M3332 2309 c-18 -46 -24 -74 -17 -67 5 4 14 3 21 -3 11 -9 16 -6 22
12 18 46 24 74 17 67 -5 -4 -14 -3 -21 3 -11 9 -16 6 -22 -12z"/>
      <path fill="#8a7247" d="M2583 2204 c-18 -53 -29 -94 -26 -90 3 3 12 1 20 -6 7 -6 15 -9 17
-7 9 11 63 189 56 184 -5 -3 -11 -1 -15 5 -13 21 -22 7 -52 -86z"/>
      <path fill="#8a7247" d="M3294 2189 c-4 -7 -3 -9 4 -5 6 3 13 2 17 -4 8 -14 25 -13 25 2 0 6
-3 8 -7 5 -3 -4 -12 -2 -19 4 -8 7 -14 6 -20 -2z"/>
      <path fill="#8a7247" d="M3275 2130 c-4 -6 1 -20 11 -31 17 -19 19 -19 25 -2 10 23 11 38 2
30 -3 -4 -12 -2 -19 4 -8 7 -14 7 -19 -1z"/>
      <path fill="#8a7247" d="M2760 1651 c-98 -54 -127 -123 -210 -509 -17 -79 -42 -175 -54 -213
-13 -38 -19 -72 -15 -74 15 -10 70 185 108 381 23 122 71 269 105 323 37 59
80 84 148 89 52 4 67 0 124 -29 76 -38 132 -102 193 -219 37 -72 106 -268 135
-387 72 -290 139 -403 237 -403 41 0 108 41 157 96 67 75 80 100 61 119 -13
13 -20 7 -61 -50 -87 -119 -170 -156 -225 -97 -51 55 -73 113 -154 407 -37
137 -102 300 -151 382 -43 72 -117 146 -176 175 -65 31 -173 36 -222 9z"/>
    </g>
  </g>
</svg>